<?xml version="1.0" encoding="UTF-8"?>
<mxfile host="app.diagrams.net" modified="2025-01-29T03:00:00.000Z" agent="VPBank K-MULT Agent Studio" etag="architecture-export" version="24.7.17">
  <diagram name="VPBank K-MULT Full-Stack Architecture" id="vpbank-fullstack">
    <mxGraphModel dx="2074" dy="1196" grid="1" gridSize="10" guides="1" tooltips="1" connect="1" arrows="1" fold="1" page="1" pageScale="1" pageWidth="1654" pageHeight="2336" math="0" shadow="0">
      <root>
        <mxCell id="0" />
        <mxCell id="1" parent="0" />
        
        <!-- Title -->
        <mxCell id="title" value="VPBank K-MULT Full-Stack Architecture - S3 Frontend + CloudFront + Strands Backend" style="text;html=1;strokeColor=none;fillColor=none;align=center;verticalAlign=middle;whiteSpace=wrap;rounded=0;fontSize=20;fontStyle=1;" vertex="1" parent="1">
          <mxGeometry x="327" y="20" width="1000" height="40" as="geometry" />
        </mxCell>
        
        <!-- External Banking Ecosystem -->
        <mxCell id="external-cluster" value="External Banking Ecosystem" style="swimlane;whiteSpace=wrap;html=1;fontSize=14;fontStyle=1;fillColor=#e1d5e7;strokeColor=#9673a6;" vertex="1" parent="1">
          <mxGeometry x="50" y="80" width="300" height="120" as="geometry" />
        </mxCell>
        <mxCell id="customers" value="Banking Customers" style="shape=actor;whiteSpace=wrap;html=1;fillColor=#dae8fc;strokeColor=#6c8ebf;" vertex="1" parent="external-cluster">
          <mxGeometry x="20" y="40" width="60" height="60" as="geometry" />
        </mxCell>
        <mxCell id="swift" value="SWIFT Network" style="ellipse;whiteSpace=wrap;html=1;fillColor=#fff2cc;strokeColor=#d6b656;" vertex="1" parent="external-cluster">
          <mxGeometry x="110" y="40" width="80" height="60" as="geometry" />
        </mxCell>
        <mxCell id="regulatory" value="SBV Regulatory" style="ellipse;whiteSpace=wrap;html=1;fillColor=#f8cecc;strokeColor=#b85450;" vertex="1" parent="external-cluster">
          <mxGeometry x="210" y="40" width="80" height="60" as="geometry" />
        </mxCell>
        
        <!-- DNS Layer -->
        <mxCell id="dns-cluster" value="DNS &amp; Domain Management" style="swimlane;whiteSpace=wrap;html=1;fontSize=14;fontStyle=1;fillColor=#d5e8d4;strokeColor=#82b366;" vertex="1" parent="1">
          <mxGeometry x="400" y="80" width="200" height="120" as="geometry" />
        </mxCell>
        <mxCell id="route53" value="Route 53&#xa;(vpbank-kmult.com)" style="rounded=1;whiteSpace=wrap;html=1;fillColor=#d5e8d4;strokeColor=#82b366;" vertex="1" parent="dns-cluster">
          <mxGeometry x="40" y="40" width="120" height="60" as="geometry" />
        </mxCell>
        
        <!-- Frontend Layer -->
        <mxCell id="frontend-cluster" value="Frontend Layer (Static Web Hosting)" style="swimlane;whiteSpace=wrap;html=1;fontSize=14;fontStyle=1;fillColor=#dae8fc;strokeColor=#6c8ebf;" vertex="1" parent="1">
          <mxGeometry x="650" y="80" width="400" height="120" as="geometry" />
        </mxCell>
        <mxCell id="s3-frontend" value="S3 Bucket&#xa;(React Frontend)&#xa;static-website" style="rounded=1;whiteSpace=wrap;html=1;fillColor=#dae8fc;strokeColor=#6c8ebf;" vertex="1" parent="frontend-cluster">
          <mxGeometry x="20" y="40" width="120" height="60" as="geometry" />
        </mxCell>
        <mxCell id="cloudfront-frontend" value="CloudFront Distribution&#xa;(Global CDN)&#xa;Frontend Assets" style="rounded=1;whiteSpace=wrap;html=1;fillColor=#dae8fc;strokeColor=#6c8ebf;" vertex="1" parent="frontend-cluster">
          <mxGeometry x="160" y="40" width="140" height="60" as="geometry" />
        </mxCell>
        
        <!-- API Edge & Security Layer -->
        <mxCell id="api-security-cluster" value="API Edge &amp; Security Layer" style="swimlane;whiteSpace=wrap;html=1;fontSize=14;fontStyle=1;fillColor=#f8cecc;strokeColor=#b85450;" vertex="1" parent="1">
          <mxGeometry x="1100" y="80" width="500" height="120" as="geometry" />
        </mxCell>
        <mxCell id="waf" value="AWS WAF&#xa;(API Protection)" style="rounded=1;whiteSpace=wrap;html=1;fillColor=#f8cecc;strokeColor=#b85450;" vertex="1" parent="api-security-cluster">
          <mxGeometry x="20" y="40" width="100" height="60" as="geometry" />
        </mxCell>
        <mxCell id="cloudfront-api" value="CloudFront&#xa;(API Caching)" style="rounded=1;whiteSpace=wrap;html=1;fillColor=#f8cecc;strokeColor=#b85450;" vertex="1" parent="api-security-cluster">
          <mxGeometry x="140" y="40" width="100" height="60" as="geometry" />
        </mxCell>
        <mxCell id="api-gateway" value="API Gateway&#xa;(REST API)" style="rounded=1;whiteSpace=wrap;html=1;fillColor=#f8cecc;strokeColor=#b85450;" vertex="1" parent="api-security-cluster">
          <mxGeometry x="260" y="40" width="100" height="60" as="geometry" />
        </mxCell>
        <mxCell id="alb" value="Application Load Balancer&#xa;(Backend Services)" style="rounded=1;whiteSpace=wrap;html=1;fillColor=#f8cecc;strokeColor=#b85450;" vertex="1" parent="api-security-cluster">
          <mxGeometry x="380" y="40" width="110" height="60" as="geometry" />
        </mxCell>
        
        <!-- Strands Orchestration Layer -->
        <mxCell id="strands-cluster" value="Strands Agents Orchestration Layer" style="swimlane;whiteSpace=wrap;html=1;fontSize=14;fontStyle=1;fillColor=#e1d5e7;strokeColor=#9673a6;" vertex="1" parent="1">
          <mxGeometry x="50" y="250" width="600" height="200" as="geometry" />
        </mxCell>
        <mxCell id="strands-orchestrator" value="Strands Orchestrator&#xa;(Claude-3.5 Sonnet)&#xa;(2-5 instances)" style="rounded=1;whiteSpace=wrap;html=1;fillColor=#e1d5e7;strokeColor=#9673a6;" vertex="1" parent="strands-cluster">
          <mxGeometry x="20" y="40" width="120" height="60" as="geometry" />
        </mxCell>
        <mxCell id="context-manager" value="Context Manager&#xa;(Shared Memory)&#xa;(1-3 instances)" style="rounded=1;whiteSpace=wrap;html=1;fillColor=#e1d5e7;strokeColor=#9673a6;" vertex="1" parent="strands-cluster">
          <mxGeometry x="160" y="40" width="120" height="60" as="geometry" />
        </mxCell>
        <mxCell id="agent-registry" value="Agent Registry&#xa;(Service Discovery)&#xa;(1-2 instances)" style="rounded=1;whiteSpace=wrap;html=1;fillColor=#e1d5e7;strokeColor=#9673a6;" vertex="1" parent="strands-cluster">
          <mxGeometry x="300" y="40" width="120" height="60" as="geometry" />
        </mxCell>
        <mxCell id="sqs" value="SQS&#xa;(Agent Messages)" style="rounded=1;whiteSpace=wrap;html=1;fillColor=#fff2cc;strokeColor=#d6b656;" vertex="1" parent="strands-cluster">
          <mxGeometry x="440" y="40" width="80" height="60" as="geometry" />
        </mxCell>
        <mxCell id="sns" value="SNS&#xa;(Event Broadcasting)" style="rounded=1;whiteSpace=wrap;html=1;fillColor=#fff2cc;strokeColor=#d6b656;" vertex="1" parent="strands-cluster">
          <mxGeometry x="440" y="120" width="80" height="60" as="geometry" />
        </mxCell>
        
        <!-- Banking Agents -->
        <mxCell id="agents-cluster" value="Strands-Enhanced Banking Agents" style="swimlane;whiteSpace=wrap;html=1;fontSize=14;fontStyle=1;fillColor=#d5e8d4;strokeColor=#82b366;" vertex="1" parent="1">
          <mxGeometry x="700" y="250" width="900" height="300" as="geometry" />
        </mxCell>
        <mxCell id="supervisor" value="Supervisor Agent&#xa;(Strands-powered)&#xa;(1-3 instances)" style="rounded=1;whiteSpace=wrap;html=1;fillColor=#d5e8d4;strokeColor=#82b366;" vertex="1" parent="agents-cluster">
          <mxGeometry x="20" y="40" width="120" height="60" as="geometry" />
        </mxCell>
        <mxCell id="workflow-coordinator" value="Workflow Coordinator&#xa;(Strands reasoning)&#xa;(1-2 instances)" style="rounded=1;whiteSpace=wrap;html=1;fillColor=#d5e8d4;strokeColor=#82b366;" vertex="1" parent="agents-cluster">
          <mxGeometry x="160" y="40" width="120" height="60" as="geometry" />
        </mxCell>
        <mxCell id="doc-intel" value="Document Intelligence&#xa;(Strands + OCR)&#xa;(2-15 instances)" style="rounded=1;whiteSpace=wrap;html=1;fillColor=#d5e8d4;strokeColor=#82b366;" vertex="1" parent="agents-cluster">
          <mxGeometry x="20" y="120" width="120" height="60" as="geometry" />
        </mxCell>
        <mxCell id="lc-processing" value="LC Processing&#xa;(Strands + UCP 600)&#xa;(1-10 instances)" style="rounded=1;whiteSpace=wrap;html=1;fillColor=#d5e8d4;strokeColor=#82b366;" vertex="1" parent="agents-cluster">
          <mxGeometry x="160" y="120" width="120" height="60" as="geometry" />
        </mxCell>
        <mxCell id="credit-analysis" value="Credit Analysis&#xa;(Strands + Basel III)&#xa;(2-12 instances)" style="rounded=1;whiteSpace=wrap;html=1;fillColor=#d5e8d4;strokeColor=#82b366;" vertex="1" parent="agents-cluster">
          <mxGeometry x="300" y="120" width="120" height="60" as="geometry" />
        </mxCell>
        <mxCell id="compliance" value="Compliance Engine&#xa;(Strands + SBV)&#xa;(1-8 instances)" style="rounded=1;whiteSpace=wrap;html=1;fillColor=#d5e8d4;strokeColor=#82b366;" vertex="1" parent="agents-cluster">
          <mxGeometry x="440" y="120" width="120" height="60" as="geometry" />
        </mxCell>
        <mxCell id="risk-assessment" value="Risk Assessment&#xa;(Strands + ML)&#xa;(2-10 instances)" style="rounded=1;whiteSpace=wrap;html=1;fillColor=#d5e8d4;strokeColor=#82b366;" vertex="1" parent="agents-cluster">
          <mxGeometry x="580" y="120" width="120" height="60" as="geometry" />
        </mxCell>
        <mxCell id="decision-synthesis" value="Decision Synthesis&#xa;(Strands + Claude 3.7)&#xa;(1-5 instances)" style="rounded=1;whiteSpace=wrap;html=1;fillColor=#d5e8d4;strokeColor=#82b366;" vertex="1" parent="agents-cluster">
          <mxGeometry x="720" y="120" width="120" height="60" as="geometry" />
        </mxCell>
        <mxCell id="consensus-builder" value="Consensus Builder&#xa;(Multi-agent voting)&#xa;(1-3 instances)" style="rounded=1;whiteSpace=wrap;html=1;fillColor=#d5e8d4;strokeColor=#82b366;" vertex="1" parent="agents-cluster">
          <mxGeometry x="720" y="200" width="120" height="60" as="geometry" />
        </mxCell>
        
        <!-- AI/ML Layer -->
        <mxCell id="aiml-cluster" value="AI/ML Intelligence Layer" style="swimlane;whiteSpace=wrap;html=1;fontSize=14;fontStyle=1;fillColor=#fff2cc;strokeColor=#d6b656;" vertex="1" parent="1">
          <mxGeometry x="50" y="600" width="700" height="150" as="geometry" />
        </mxCell>
        <mxCell id="bedrock" value="Amazon Bedrock&#xa;(Claude 3.7 Sonnet)" style="rounded=1;whiteSpace=wrap;html=1;fillColor=#fff2cc;strokeColor=#d6b656;" vertex="1" parent="aiml-cluster">
          <mxGeometry x="20" y="40" width="100" height="60" as="geometry" />
        </mxCell>
        <mxCell id="strands-bedrock" value="Strands Bedrock&#xa;(Enhanced Reasoning)" style="rounded=1;whiteSpace=wrap;html=1;fillColor=#fff2cc;strokeColor=#d6b656;" vertex="1" parent="aiml-cluster">
          <mxGeometry x="140" y="40" width="100" height="60" as="geometry" />
        </mxCell>
        <mxCell id="textract" value="Amazon Textract&#xa;(OCR)" style="rounded=1;whiteSpace=wrap;html=1;fillColor=#fff2cc;strokeColor=#d6b656;" vertex="1" parent="aiml-cluster">
          <mxGeometry x="260" y="40" width="100" height="60" as="geometry" />
        </mxCell>
        <mxCell id="comprehend" value="Amazon Comprehend&#xa;(Vietnamese NLP)" style="rounded=1;whiteSpace=wrap;html=1;fillColor=#fff2cc;strokeColor=#d6b656;" vertex="1" parent="aiml-cluster">
          <mxGeometry x="380" y="40" width="100" height="60" as="geometry" />
        </mxCell>
        <mxCell id="sagemaker" value="SageMaker&#xa;(ML Models)" style="rounded=1;whiteSpace=wrap;html=1;fillColor=#fff2cc;strokeColor=#d6b656;" vertex="1" parent="aiml-cluster">
          <mxGeometry x="500" y="40" width="100" height="60" as="geometry" />
        </mxCell>
        <mxCell id="fraud-detector" value="Fraud Detector" style="rounded=1;whiteSpace=wrap;html=1;fillColor=#fff2cc;strokeColor=#d6b656;" vertex="1" parent="aiml-cluster">
          <mxGeometry x="620" y="40" width="100" height="60" as="geometry" />
        </mxCell>
        
        <!-- Data & Storage Layer -->
        <mxCell id="data-cluster" value="Data &amp; Storage Layer" style="swimlane;whiteSpace=wrap;html=1;fontSize=14;fontStyle=1;fillColor=#f8cecc;strokeColor=#b85450;" vertex="1" parent="1">
          <mxGeometry x="800" y="600" width="600" height="150" as="geometry" />
        </mxCell>
        <mxCell id="rds" value="RDS PostgreSQL&#xa;(Multi-AZ)" style="rounded=1;whiteSpace=wrap;html=1;fillColor=#f8cecc;strokeColor=#b85450;" vertex="1" parent="data-cluster">
          <mxGeometry x="20" y="40" width="100" height="60" as="geometry" />
        </mxCell>
        <mxCell id="dynamodb" value="DynamoDB&#xa;(Session Store)" style="rounded=1;whiteSpace=wrap;html=1;fillColor=#f8cecc;strokeColor=#b85450;" vertex="1" parent="data-cluster">
          <mxGeometry x="140" y="40" width="100" height="60" as="geometry" />
        </mxCell>
        <mxCell id="agent-memory" value="Agent Memory&#xa;(Strands Context)" style="rounded=1;whiteSpace=wrap;html=1;fillColor=#f8cecc;strokeColor=#b85450;" vertex="1" parent="data-cluster">
          <mxGeometry x="260" y="40" width="100" height="60" as="geometry" />
        </mxCell>
        <mxCell id="s3-documents" value="S3 Buckets&#xa;(Documents Storage)" style="rounded=1;whiteSpace=wrap;html=1;fillColor=#f8cecc;strokeColor=#b85450;" vertex="1" parent="data-cluster">
          <mxGeometry x="380" y="40" width="100" height="60" as="geometry" />
        </mxCell>
        <mxCell id="elasticache" value="ElastiCache&#xa;(Redis)" style="rounded=1;whiteSpace=wrap;html=1;fillColor=#f8cecc;strokeColor=#b85450;" vertex="1" parent="data-cluster">
          <mxGeometry x="500" y="40" width="100" height="60" as="geometry" />
        </mxCell>
        
        <!-- Monitoring & Security -->
        <mxCell id="monitoring-cluster" value="Monitoring &amp; Security" style="swimlane;whiteSpace=wrap;html=1;fontSize=14;fontStyle=1;fillColor=#e1d5e7;strokeColor=#9673a6;" vertex="1" parent="1">
          <mxGeometry x="50" y="800" width="500" height="150" as="geometry" />
        </mxCell>
        <mxCell id="cloudwatch" value="CloudWatch&#xa;(Logs &amp; Metrics)" style="rounded=1;whiteSpace=wrap;html=1;fillColor=#e1d5e7;strokeColor=#9673a6;" vertex="1" parent="monitoring-cluster">
          <mxGeometry x="20" y="40" width="100" height="60" as="geometry" />
        </mxCell>
        <mxCell id="guardduty" value="GuardDuty&#xa;(Threat Detection)" style="rounded=1;whiteSpace=wrap;html=1;fillColor=#e1d5e7;strokeColor=#9673a6;" vertex="1" parent="monitoring-cluster">
          <mxGeometry x="140" y="40" width="100" height="60" as="geometry" />
        </mxCell>
        <mxCell id="kms" value="AWS KMS&#xa;(Encryption)" style="rounded=1;whiteSpace=wrap;html=1;fillColor=#e1d5e7;strokeColor=#9673a6;" vertex="1" parent="monitoring-cluster">
          <mxGeometry x="260" y="40" width="100" height="60" as="geometry" />
        </mxCell>
        <mxCell id="iam" value="IAM Roles&#xa;(Access Control)" style="rounded=1;whiteSpace=wrap;html=1;fillColor=#e1d5e7;strokeColor=#9673a6;" vertex="1" parent="monitoring-cluster">
          <mxGeometry x="380" y="40" width="100" height="60" as="geometry" />
        </mxCell>
        
        <!-- Step Functions -->
        <mxCell id="step-functions" value="Step Functions&#xa;(Strands Workflow)" style="rounded=1;whiteSpace=wrap;html=1;fillColor=#d5e8d4;strokeColor=#82b366;" vertex="1" parent="1">
          <mxGeometry x="600" y="800" width="120" height="60" as="geometry" />
        </mxCell>
        
        <!-- Key Connections -->
        <mxCell id="conn1" style="edgeStyle=orthogonalEdgeStyle;rounded=0;orthogonalLoop=1;jettySize=auto;html=1;strokeColor=#0066CC;strokeWidth=3;" edge="1" parent="1" source="customers" target="route53">
          <mxGeometry relative="1" as="geometry" />
        </mxCell>
        <mxCell id="conn2" style="edgeStyle=orthogonalEdgeStyle;rounded=0;orthogonalLoop=1;jettySize=auto;html=1;strokeColor=#0066CC;strokeWidth=2;" edge="1" parent="1" source="route53" target="cloudfront-frontend">
          <mxGeometry relative="1" as="geometry" />
        </mxCell>
        <mxCell id="conn3" style="edgeStyle=orthogonalEdgeStyle;rounded=0;orthogonalLoop=1;jettySize=auto;html=1;strokeColor=#0066CC;strokeWidth=2;" edge="1" parent="1" source="cloudfront-frontend" target="s3-frontend">
          <mxGeometry relative="1" as="geometry" />
        </mxCell>
        <mxCell id="conn4" style="edgeStyle=orthogonalEdgeStyle;rounded=0;orthogonalLoop=1;jettySize=auto;html=1;strokeColor=#00CC00;strokeWidth=3;" edge="1" parent="1" source="s3-frontend" target="waf">
          <mxGeometry relative="1" as="geometry" />
        </mxCell>
        <mxCell id="conn5" style="edgeStyle=orthogonalEdgeStyle;rounded=0;orthogonalLoop=1;jettySize=auto;html=1;strokeColor=#CC0000;strokeWidth=3;" edge="1" parent="1" source="alb" target="strands-orchestrator">
          <mxGeometry relative="1" as="geometry" />
        </mxCell>
        <mxCell id="conn6" style="edgeStyle=orthogonalEdgeStyle;rounded=0;orthogonalLoop=1;jettySize=auto;html=1;strokeColor=#9900CC;strokeWidth=2;" edge="1" parent="1" source="strands-orchestrator" target="supervisor">
          <mxGeometry relative="1" as="geometry" />
        </mxCell>
        <mxCell id="conn7" style="edgeStyle=orthogonalEdgeStyle;rounded=0;orthogonalLoop=1;jettySize=auto;html=1;strokeColor=#CC6600;strokeWidth=2;" edge="1" parent="1" source="decision-synthesis" target="bedrock">
          <mxGeometry relative="1" as="geometry" />
        </mxCell>
        <mxCell id="conn8" style="edgeStyle=orthogonalEdgeStyle;rounded=0;orthogonalLoop=1;jettySize=auto;html=1;strokeColor=#CC6600;strokeWidth=2;" edge="1" parent="1" source="strands-orchestrator" target="strands-bedrock">
          <mxGeometry relative="1" as="geometry" />
        </mxCell>
        
        <!-- Legend -->
        <mxCell id="legend" value="Legend:&#xa;🔵 User Flow&#xa;🟢 API Flow&#xa;🔴 Backend Flow&#xa;🟣 Strands Flow&#xa;🟠 AI/ML Flow" style="text;html=1;strokeColor=none;fillColor=#f5f5f5;align=left;verticalAlign=top;whiteSpace=wrap;rounded=1;" vertex="1" parent="1">
          <mxGeometry x="1450" y="800" width="150" height="100" as="geometry" />
        </mxCell>
        
      </root>
    </mxGraphModel>
  </diagram>
</mxfile>
